<svg width="1042" height="226" viewBox="0 0 1042 226" fill="none" xmlns="http://www.w3.org/2000/svg">
<path d="M57.1774 4.46362H26.9245L24.4173 17.5637L51.7167 17.5945C65.1616 17.5945 69.1373 22.1572 69.0239 29.7321C68.9654 33.6127 67.1659 40.1721 66.3887 42.2988C64.3167 47.9676 60.0613 54.4364 44.1037 54.4108L17.5669 54.4005L15.0542 67.5057H45.2394C55.8863 67.5057 60.4179 66.3484 65.2092 64.2764C75.8396 59.6881 82.1652 49.8805 84.698 37.0813C88.4726 18.0219 83.7727 4.46362 57.1774 4.46362Z" fill="#008DE4"/>
<path d="M150.739 67.5364L152.872 56.1459H178.715C180.745 56.1459 182.168 55.0056 182.472 53.1081C182.877 51.2088 181.863 50.0703 179.833 50.0703H167.476C157.727 50.0703 153.056 44.7553 154.783 35.6419C156.509 26.5284 163.211 21.2152 172.958 21.2152H201.035L198.802 32.6058H174.057C172.026 32.6058 170.605 33.7443 170.299 35.6419C169.893 37.5412 170.908 38.6797 172.94 38.6797H185.297C195.044 38.6797 199.715 43.9963 197.99 53.1081C196.266 62.2198 189.662 67.5364 179.915 67.5364H150.739Z" fill="#008DE4"/>
<path d="M111.381 67.5347C95.3358 67.5347 88.1251 59.3701 90.9688 44.3707C93.7119 29.3731 104.07 21.2084 120.113 21.2084H148.548L139.814 67.5365L111.381 67.5347ZM129.862 32.6006H122.547C113.815 32.6006 108.649 36.2077 107.133 44.3707C105.509 52.5354 108.759 56.1425 117.491 56.1425H125.494L129.862 32.6006Z" fill="#008DE4"/>
<path d="M236.273 67.5348L241.351 40.5739C242.266 35.2573 239.958 32.9802 234.271 32.9802H226.184L219.684 67.5348H203.226L215.125 4.46362H231.584L228.417 21.217H240.742C255.162 21.217 260.341 27.1028 257.803 40.5824L252.724 67.5433L236.273 67.5348Z" fill="#008DE4"/>
<path d="M13.8709 29.4038C5.94701 29.4038 4.81136 34.2315 4.06158 37.148C3.07955 40.9687 2.75769 42.5159 2.75769 42.5159H33.7329C41.6568 42.5159 42.7924 37.6882 43.5422 34.7717C44.5242 30.9509 44.8461 29.4038 44.8461 29.4038H13.8709Z" fill="#008DE4"/>
<path d="M330.96 36C330.96 45.9733 328.293 53.6 322.96 58.88C317.68 64.16 310.133 66.8 300.32 66.8C294.613 66.8 289.28 66.4 284.32 65.6V8C289.28 7.2 294.613 6.8 300.32 6.8C310.08 6.8 317.627 9.36 322.96 14.48C328.293 19.5467 330.96 26.72 330.96 36ZM320.32 36C320.32 22.5067 313.84 15.76 300.88 15.76C298.853 15.76 297.013 15.92 295.36 16.24V57.36C297.013 57.68 298.853 57.84 300.88 57.84C307.387 57.84 312.24 56.0533 315.44 52.48C318.693 48.9067 320.32 43.4133 320.32 36ZM341.943 29.44C345.676 25.5467 350.716 23.6 357.063 23.6C363.41 23.6 368.45 25.5467 372.183 29.44C375.916 33.3333 377.783 38.5867 377.783 45.2C377.783 51.8133 375.916 57.0667 372.183 60.96C368.45 64.8533 363.41 66.8 357.063 66.8C350.716 66.8 345.676 64.8533 341.943 60.96C338.263 57.0667 336.423 51.8133 336.423 45.2C336.423 38.5867 338.263 33.3333 341.943 29.44ZM357.063 58.88C360.316 58.88 362.85 57.7333 364.663 55.44C366.476 53.0933 367.383 49.68 367.383 45.2C367.383 40.72 366.476 37.3333 364.663 35.04C362.85 32.6933 360.316 31.52 357.063 31.52C353.863 31.52 351.356 32.6933 349.543 35.04C347.73 37.3333 346.823 40.72 346.823 45.2C346.823 49.68 347.73 53.0933 349.543 55.44C351.356 57.7333 353.863 58.88 357.063 58.88ZM417.361 56.08L419.761 63.84C415.388 65.8133 410.855 66.8 406.161 66.8C399.495 66.8 394.135 64.8533 390.081 60.96C386.028 57.0667 384.001 51.8133 384.001 45.2C384.001 38.4267 385.948 33.1467 389.841 29.36C393.788 25.52 399.228 23.6 406.161 23.6C410.855 23.6 415.388 24.5867 419.761 26.56L417.361 34.48C414.001 32.56 410.428 31.6 406.641 31.6C402.855 31.6 399.895 32.7733 397.761 35.12C395.681 37.4667 394.641 40.8267 394.641 45.2C394.641 49.4667 395.735 52.8267 397.921 55.28C400.161 57.7333 403.068 58.96 406.641 58.96C410.481 58.96 414.055 58 417.361 56.08ZM439.844 24.4V49.2C439.844 52.7733 440.324 55.2267 441.284 56.56C442.298 57.84 444.004 58.48 446.404 58.48C448.751 58.48 450.884 57.3067 452.804 54.96C454.778 52.56 455.764 49.76 455.764 46.56V24.4H466.164V66H456.404L456.164 60.16H456.004C454.404 62.24 452.431 63.8667 450.084 65.04C447.738 66.2133 445.311 66.8 442.804 66.8C438.271 66.8 434.938 65.52 432.804 62.96C430.671 60.3467 429.604 56.1067 429.604 50.24V24.4H439.844ZM477.192 24.4H486.792L487.032 30H487.192C490.285 25.7333 493.832 23.6 497.832 23.6C500.445 23.6 502.605 24.1333 504.312 25.2C506.019 26.2667 507.485 28 508.712 30.4H508.872C512.339 25.8667 516.419 23.6 521.112 23.6C525.592 23.6 528.845 24.8533 530.872 27.36C532.952 29.8133 533.992 33.9733 533.992 39.84V66H523.912V42.24C523.912 38.08 523.459 35.28 522.552 33.84C521.699 32.4 520.152 31.68 517.912 31.68C515.992 31.68 514.312 32.6933 512.872 34.72C511.432 36.7467 510.712 39.2533 510.712 42.24V66H500.632V42.24C500.632 38.08 500.179 35.28 499.272 33.84C498.419 32.4 496.872 31.68 494.632 31.68C492.712 31.68 491.032 32.6933 489.592 34.72C488.152 36.7467 487.432 39.2533 487.432 42.24V66H477.192V24.4ZM552.214 41.84H571.734C571.68 38.3733 570.8 35.7333 569.094 33.92C567.44 32.0533 565.094 31.12 562.054 31.12C559.12 31.12 556.774 32.0533 555.014 33.92C553.307 35.7867 552.374 38.4267 552.214 41.84ZM552.214 48.96C552.48 52.1067 553.68 54.6133 555.814 56.48C558 58.2933 560.747 59.2 564.054 59.2C568 59.2 571.92 58.2133 575.814 56.24L578.214 63.6C573.414 65.7333 568.347 66.8 563.014 66.8C556.72 66.8 551.6 64.8533 547.654 60.96C543.76 57.0667 541.814 51.8133 541.814 45.2C541.814 38.48 543.627 33.2 547.254 29.36C550.88 25.52 555.787 23.6 561.974 23.6C568.16 23.6 572.96 25.44 576.374 29.12C579.84 32.8 581.574 38.08 581.574 44.96C581.574 46.2933 581.494 47.6267 581.334 48.96H552.214ZM590.239 24.4H599.999L600.159 30.24H600.319C601.919 28.16 603.892 26.5333 606.239 25.36C608.639 24.1867 611.092 23.6 613.599 23.6C618.399 23.6 621.919 25.0933 624.159 28.08C626.452 31.0133 627.599 35.84 627.599 42.56V66H617.359V43.6C617.359 39.0133 616.825 35.92 615.759 34.32C614.692 32.6667 612.772 31.84 609.999 31.84C607.652 31.84 605.492 33.04 603.519 35.44C601.599 37.84 600.639 40.64 600.639 43.84V66H590.239V24.4ZM653.925 26H668.245V33.76H653.925V50.8C653.925 53.9467 654.325 56.08 655.125 57.2C655.925 58.2667 657.365 58.8 659.445 58.8C662.005 58.8 664.405 58.3467 666.645 57.44L668.005 65.2C664.698 66.2667 661.125 66.8 657.285 66.8C652.378 66.8 648.805 65.7067 646.565 63.52C644.378 61.3333 643.285 57.7067 643.285 52.64V33.76H634.645V26H643.285V10.8H653.925V26Z" fill="#008DE4"/>
<path d="M123.36 137.2V160H112.32V102C117.76 101.2 123.627 100.8 129.92 100.8C137.76 100.8 143.627 102.267 147.52 105.2C151.413 108.08 153.36 112.16 153.36 117.44C153.36 121.28 152.32 124.64 150.24 127.52C148.213 130.4 145.44 132.4 141.92 133.52V133.68C144.48 135.173 146.693 138.347 148.56 143.2L154.96 160H143.44L137.36 143.44C136.4 140.88 135.307 139.2 134.08 138.4C132.853 137.6 130.747 137.2 127.76 137.2H123.36ZM123.36 128.72H128.08C137.573 128.72 142.32 125.333 142.32 118.56C142.32 112.533 137.92 109.52 129.12 109.52C126.933 109.52 125.013 109.68 123.36 110V128.72ZM169.667 135.84H189.187C189.134 132.373 188.254 129.733 186.547 127.92C184.894 126.053 182.547 125.12 179.507 125.12C176.574 125.12 174.227 126.053 172.467 127.92C170.76 129.787 169.827 132.427 169.667 135.84ZM169.667 142.96C169.934 146.107 171.134 148.613 173.267 150.48C175.454 152.293 178.2 153.2 181.507 153.2C185.454 153.2 189.374 152.213 193.267 150.24L195.667 157.6C190.867 159.733 185.8 160.8 180.467 160.8C174.174 160.8 169.054 158.853 165.107 154.96C161.214 151.067 159.267 145.813 159.267 139.2C159.267 132.48 161.08 127.2 164.707 123.36C168.334 119.52 173.24 117.6 179.427 117.6C185.614 117.6 190.414 119.44 193.827 123.12C197.294 126.8 199.027 132.08 199.027 138.96C199.027 140.293 198.947 141.627 198.787 142.96H169.667ZM237.132 139.2C237.132 134.72 236.279 131.36 234.572 129.12C232.919 126.88 230.572 125.76 227.532 125.76C224.705 125.76 222.412 126.933 220.652 129.28C218.945 131.573 218.092 134.747 218.092 138.8V139.6C218.092 143.76 218.945 146.987 220.652 149.28C222.412 151.52 224.705 152.64 227.532 152.64C230.359 152.64 232.652 151.493 234.412 149.2C236.225 146.853 237.132 143.52 237.132 139.2ZM247.132 139.2C247.132 146.08 245.585 151.413 242.492 155.2C239.452 158.933 235.452 160.8 230.492 160.8C225.372 160.8 221.292 158.853 218.252 154.96H218.092V177.6H207.692V118.4H217.452L217.612 124.24H217.772C220.972 119.813 225.212 117.6 230.492 117.6C235.665 117.6 239.719 119.44 242.652 123.12C245.639 126.8 247.132 132.16 247.132 139.2ZM259.24 123.44C262.973 119.547 268.013 117.6 274.36 117.6C280.707 117.6 285.747 119.547 289.48 123.44C293.213 127.333 295.08 132.587 295.08 139.2C295.08 145.813 293.213 151.067 289.48 154.96C285.747 158.853 280.707 160.8 274.36 160.8C268.013 160.8 262.973 158.853 259.24 154.96C255.56 151.067 253.72 145.813 253.72 139.2C253.72 132.587 255.56 127.333 259.24 123.44ZM274.36 152.88C277.613 152.88 280.147 151.733 281.96 149.44C283.773 147.093 284.68 143.68 284.68 139.2C284.68 134.72 283.773 131.333 281.96 129.04C280.147 126.693 277.613 125.52 274.36 125.52C271.16 125.52 268.653 126.693 266.84 129.04C265.027 131.333 264.12 134.72 264.12 139.2C264.12 143.68 265.027 147.093 266.84 149.44C268.653 151.733 271.16 152.88 274.36 152.88ZM332.517 128.48C328.09 126.453 323.744 125.44 319.477 125.44C314.57 125.44 312.117 126.88 312.117 129.76C312.117 131.147 312.65 132.213 313.717 132.96C314.784 133.707 316.65 134.267 319.317 134.64C325.237 135.493 329.477 137.04 332.037 139.28C334.597 141.467 335.877 144.507 335.877 148.4C335.877 152.24 334.384 155.28 331.397 157.52C328.464 159.707 324.304 160.8 318.917 160.8C312.464 160.8 306.73 159.467 301.717 156.8L303.717 148.96C308.25 151.573 313.13 152.88 318.357 152.88C322.997 152.88 325.317 151.333 325.317 148.24C325.317 146.8 324.837 145.733 323.877 145.04C322.917 144.293 321.05 143.68 318.277 143.2C312.41 142.24 308.197 140.667 305.637 138.48C303.13 136.293 301.877 133.333 301.877 129.6C301.877 125.92 303.317 123.013 306.197 120.88C309.13 118.693 313.37 117.6 318.917 117.6C324.464 117.6 329.664 118.613 334.517 120.64L332.517 128.48ZM347.748 109.6V100H358.708V109.6H347.748ZM347.748 160V118.4H358.708V160H347.748ZM389.425 120H403.745V127.76H389.425V144.8C389.425 147.947 389.825 150.08 390.625 151.2C391.425 152.267 392.865 152.8 394.945 152.8C397.505 152.8 399.905 152.347 402.145 151.44L403.505 159.2C400.198 160.267 396.625 160.8 392.785 160.8C387.878 160.8 384.305 159.707 382.065 157.52C379.878 155.333 378.785 151.707 378.785 146.64V127.76H370.145V120H378.785V104.8H389.425V120ZM416.74 123.44C420.473 119.547 425.513 117.6 431.86 117.6C438.207 117.6 443.247 119.547 446.98 123.44C450.713 127.333 452.58 132.587 452.58 139.2C452.58 145.813 450.713 151.067 446.98 154.96C443.247 158.853 438.207 160.8 431.86 160.8C425.513 160.8 420.473 158.853 416.74 154.96C413.06 151.067 411.22 145.813 411.22 139.2C411.22 132.587 413.06 127.333 416.74 123.44ZM431.86 152.88C435.113 152.88 437.647 151.733 439.46 149.44C441.273 147.093 442.18 143.68 442.18 139.2C442.18 134.72 441.273 131.333 439.46 129.04C437.647 126.693 435.113 125.52 431.86 125.52C428.66 125.52 426.153 126.693 424.34 129.04C422.527 131.333 421.62 134.72 421.62 139.2C421.62 143.68 422.527 147.093 424.34 149.44C426.153 151.733 428.66 152.88 431.86 152.88ZM460.817 118.4H470.737L470.897 126.4H471.057C475.804 120.533 482.177 117.6 490.177 117.6V126.08C484.257 126.08 479.644 127.52 476.337 130.4C473.084 133.227 471.457 137.04 471.457 141.84V160H460.817V118.4ZM517.005 149.04H517.165L527.565 118.4H538.605L515.405 177.6H504.365L511.885 160L496.445 118.4H507.885L517.005 149.04Z" fill="#008DE4"/>
</svg>
