<svg width="28" height="28" viewBox="0 0 28 28" fill="none" xmlns="http://www.w3.org/2000/svg">
<circle cx="14" cy="14" r="13.5" fill="#9DDE49" stroke="#7B7B7B"/>
<path d="M17.6504 9.47C16.5584 8.93 15.3884 8.66 14.1404 8.66C13.4684 8.66 12.9524 8.804 12.5924 9.092C12.2324 9.38 12.0524 9.764 12.0524 10.244C12.0524 11.096 12.6704 11.696 13.9064 12.044C15.5864 12.512 16.7684 13.082 17.4524 13.754C18.1484 14.426 18.4964 15.296 18.4964 16.364C18.4964 17.6 18.0884 18.548 17.2724 19.208C16.4564 19.856 15.2744 20.18 13.7264 20.18C12.1544 20.18 10.7444 19.79 9.49641 19.01L10.1264 16.994C11.2784 17.774 12.4964 18.164 13.7804 18.164C14.4884 18.164 15.0224 18.014 15.3824 17.714C15.7544 17.402 15.9404 16.964 15.9404 16.4C15.9404 15.884 15.7904 15.476 15.4904 15.176C15.2024 14.876 14.6744 14.612 13.9064 14.384C12.3704 13.94 11.2544 13.382 10.5584 12.71C9.87441 12.038 9.53241 11.216 9.53241 10.244C9.53241 9.164 9.92841 8.3 10.7204 7.652C11.5244 7.004 12.6464 6.68 14.0864 6.68C15.5744 6.68 16.9364 6.962 18.1724 7.526L17.6504 9.47Z" fill="#7B7B7B"/>
</svg>
